<?xml version="1.0" standalone="no"?><!DOCTYPE svg PUBLIC "-//W3C//DTD SVG 1.1//EN" "http://www.w3.org/Graphics/SVG/1.1/DTD/svg11.dtd"><svg t="1690090043050" class="icon" viewBox="0 0 1024 1024" version="1.1" xmlns="http://www.w3.org/2000/svg" p-id="4197" xmlns:xlink="http://www.w3.org/1999/xlink" width="48" height="48"><path d="M912.4 726.6H665.66c-75.807 0-137.26-61.453-137.26-137.26 0-75.807 61.453-137.26 137.26-137.26H912.4V416.4c0-40.869-33.13-74-74-74H185.6c-40.87 0-74 33.131-74 74v384.3c0 40.869 33.13 74 74 74h652.8c40.87 0 74-33.131 74-74v-74.1z m-38.595-422.796C921.676 318.842 956.4 363.566 956.4 416.4v384.3c0 65.17-52.83 118-118 118H185.6c-65.17 0-118-52.83-118-118V416.4c0-53.725 35.904-99.064 85.027-113.331 1.96-1.491 4.285-2.72 6.987-3.596l514.792-166.918C729.442 114.71 789.3 139.4 815.75 190.857l58.056 112.947z m-52.25-5.404l-44.94-87.428c-16.586-32.27-54.123-47.753-88.638-36.562L305.578 298.4h515.977zM665.66 496.08c-51.506 0-93.26 41.754-93.26 93.26 0 51.506 41.754 93.26 93.26 93.26H912.4V496.08H665.66z m-0.06 145.705c-28.719 0-52-23.28-52-52 0-28.718 23.281-52 52-52s52 23.282 52 52c0 28.72-23.281 52-52 52z" fill="#fe2c2b" p-id="4198"></path></svg>