<?xml version="1.0" standalone="no"?><!DOCTYPE svg PUBLIC "-//W3C//DTD SVG 1.1//EN" "http://www.w3.org/Graphics/SVG/1.1/DTD/svg11.dtd"><svg t="1690090500600" class="icon" viewBox="0 0 1024 1024" version="1.1" xmlns="http://www.w3.org/2000/svg" p-id="16642" xmlns:xlink="http://www.w3.org/1999/xlink" width="48" height="48"><path d="M512 992a32 32 0 0 1-32-32V422.4a32 32 0 1 1 64 0V960a32 32 0 0 1-32 32z" p-id="16643" fill="#4286f5"></path><path d="M512 992a32 32 0 0 1-24.256-11.104l-160-185.6a32.032 32.032 0 0 1 48.48-41.792L512 910.976l135.744-157.472a32 32 0 1 1 48.48 41.792l-160 185.6A31.904 31.904 0 0 1 512 992z" p-id="16644" fill="#4286f5"></path><path d="M800.48 829.28a31.968 31.968 0 0 1-31.488-26.624 31.968 31.968 0 0 1 26.144-36.928A159.52 159.52 0 0 0 928 608a159.552 159.552 0 0 0-58.912-123.968 32 32 0 0 1-10.56-33.472c3.744-13.184 5.472-24.16 5.472-34.56 0-70.592-57.408-128-128-128-6.912 0-14.24 0.736-23.104 2.368a31.84 31.84 0 0 1-34.592-17.536C635.104 183.488 546.848 128 448 128c-141.152 0-256 114.848-256 256l0.416 7.264a31.936 31.936 0 0 1-13.76 27.04A192.224 192.224 0 0 0 96 576a191.136 191.136 0 0 0 134.848 183.36 32 32 0 0 1-19.072 61.088A254.848 254.848 0 0 1 32 576a256.16 256.16 0 0 1 96.096-199.776C132.224 203.36 274.144 64 448 64a317.376 317.376 0 0 1 277.056 160.384C728.768 224.128 732.448 224 736 224c105.888 0 192 86.112 192 192 0 10.464-0.992 20.96-3.136 32.128A223.168 223.168 0 0 1 992 608a223.36 223.36 0 0 1-186.112 220.8 31.424 31.424 0 0 1-5.408 0.48z" p-id="16645" fill="#4286f5"></path><path d="M64 608a32 32 0 0 1-32-32c0-141.152 114.848-256 256-256a32 32 0 1 1 0 64c-105.888 0-192 86.112-192 192a32 32 0 0 1-32 32z" p-id="16646" fill="#4286f5"></path><path d="M736 416a32 32 0 0 1-32-32c0-141.152-114.848-256-256-256a32 32 0 1 1 0-64c176.448 0 320 143.552 320 320a32 32 0 0 1-32 32z" p-id="16647" fill="#4286f5"></path></svg>