<?xml version="1.0" standalone="no"?><!DOCTYPE svg PUBLIC "-//W3C//DTD SVG 1.1//EN" "http://www.w3.org/Graphics/SVG/1.1/DTD/svg11.dtd"><svg class="icon" width="64px" height="64.00px" viewBox="0 0 1024 1024" version="1.1" xmlns="http://www.w3.org/2000/svg"><path fill="#febf32" d="M682.666167 0a42.666792 42.666792 0 0 1 25.940873 8.789957l4.266979 3.710982 207.059989 207.060989a63.999688 63.999688 0 0 1 18.43191 38.95381l0.298999 6.314969v332.499376a42.666792 42.666792 0 0 1-85.034585 4.991976l-0.298999-4.991976V273.662664L664.959253 85.333583H170.668667v853.328834H512a42.666792 42.666792 0 0 1 42.367793 37.673816l0.298999 4.991975a42.666792 42.666792 0 0 1-37.674816 42.367793L512 1023.995H149.334771a63.999688 63.999688 0 0 1-63.700689-57.855717L85.335083 959.995313V63.999688A63.999688 63.999688 0 0 1 143.191801 0.298999L149.334771 0h533.331396zM639.999375 0a42.666792 42.666792 0 0 1 42.367793 37.674816l0.298999 4.991976V255.99875H895.998125a42.666792 42.666792 0 0 1 42.367793 37.674816l0.298999 4.991976a42.666792 42.666792 0 0 1-37.674816 42.367793l-4.991976 0.297998H661.332271a63.999688 63.999688 0 0 1-63.700689-57.855717l-0.298999-6.14397V42.666792A42.666792 42.666792 0 0 1 639.999375 0z m311.166481 695.164606a42.666792 42.666792 0 0 1 63.871688 56.319725l-3.540983 4.00998-240.894824 240.938824a63.999688 63.999688 0 0 1-85.674581 4.393978l-4.863977-4.394978L567.167731 883.495686a42.666792 42.666792 0 0 1 56.319725-63.871688l4.00998 3.540983 97.834522 97.791522 225.833898-225.790897zM341.333833 341.331333h127.999375Q512 341.331333 512 383.998125t-42.666792 42.666792h-127.999375q-42.665792 0-42.665791-42.666792t42.665791-42.666792zM341.333833 511.9975h341.332334q42.665792 0 42.665791 42.666792 0 42.665792-42.665791 42.665791H341.333833q-42.665792 0-42.665791-42.665791 0-42.666792 42.665791-42.666792zM341.333833 682.663667h127.999375q42.666792 0 42.666792 42.665791Q512 767.99625 469.333208 767.99625h-127.999375q-42.665792 0-42.665791-42.666792 0-42.665792 42.665791-42.665791z" /></svg>