<?xml version="1.0" standalone="no"?><!DOCTYPE svg PUBLIC "-//W3C//DTD SVG 1.1//EN" "http://www.w3.org/Graphics/SVG/1.1/DTD/svg11.dtd"><svg class="icon" width="48px" height="48.00px" viewBox="0 0 1024 1024" version="1.1" xmlns="http://www.w3.org/2000/svg"><path fill="#4286f5" d="M478.967742 363.354839m49.548387 0l0 0q49.548387 0 49.548387 49.548387l0 66.064516q0 49.548387-49.548387 49.548387l0 0q-49.548387 0-49.548387-49.548387l0-66.064516q0-49.548387 49.548387-49.548387Z"  /><path fill="#4286f5" d="M677.16129 363.354839m49.548387 0l0 0q49.548387 0 49.548388 49.548387l0 66.064516q0 49.548387-49.548388 49.548387l0 0q-49.548387 0-49.548387-49.548387l0-66.064516q0-49.548387 49.548387-49.548387Z"  /><path fill="#4286f5" d="M316.135226 92.96929A460.717419 460.717419 0 0 1 512 49.548387c255.405419 0 462.451613 207.046194 462.451613 462.451613S767.405419 974.451613 512 974.451613 49.548387 767.405419 49.548387 512c0-95.463226 29.035355-186.632258 82.250323-263.316645-1.651613-39.093677-9.414194-74.02529-21.371871-104.563613A244.636903 244.636903 0 0 0 95.95871 113.333677L92.440774 107.354839a113.267613 113.267613 0 0 0-1.849806-2.923355l-3.022452-4.376774C73.959226 78.418581 89.38529 49.548387 115.612903 49.548387c65.024 0 126.629161 14.484645 184.419097 43.354839l7.861677 4.029935 8.241549-3.963871zM174.856258 127.719226c14.104774 38.581677 22.627097 82.283355 23.287742 130.675613a33.032258 33.032258 0 0 1-6.375226 19.934967A394.405161 394.405161 0 0 0 115.612903 512c0 218.92129 177.465806 396.387097 396.387097 396.387097s396.387097-177.465806 396.387097-396.387097S730.92129 115.612903 512 115.612903a394.322581 394.322581 0 0 0-188.845419 47.781162 33.032258 33.032258 0 0 1-32.322065-0.42942c-35.294968-20.463484-72.109419-34.254452-110.608516-41.455484l-8.258065-1.436903 2.890323 7.646968z"  /></svg>