<?xml version="1.0" standalone="no"?><!DOCTYPE svg PUBLIC "-//W3C//DTD SVG 1.1//EN" "http://www.w3.org/Graphics/SVG/1.1/DTD/svg11.dtd"><svg class="icon" width="64px" height="64.00px" viewBox="0 0 1024 1024" version="1.1" xmlns="http://www.w3.org/2000/svg"><path fill="#febf32" d="M560.899 498.896c27.97-26.75 45.416-64.416 45.416-106.081 0-80.961-65.866-146.827-146.827-146.827s-146.827 65.866-146.827 146.827c0 41.666 17.447 79.332 45.416 106.081-26.814 12.994-51.465 31.228-72.829 54.235-45.792 49.314-71.01 114.719-71.01 184.165 0 17.673 14.327 32 32 32h426.5c17.673 0 32-14.327 32-32 0-69.446-25.219-134.851-71.011-184.165-21.363-23.007-46.014-41.241-72.828-54.235zM376.661 392.814c0-45.671 37.156-82.827 82.827-82.827s82.827 37.156 82.827 82.827-37.156 82.827-82.827 82.827-82.827-37.156-82.827-82.827z m-96.049 312.482c14.061-93.829 88.92-165.654 178.876-165.654s164.814 71.825 178.876 165.654H280.612zM775.688 58.191H160.583c-35.29 0-64 28.71-64 64v774.295c0 35.29 28.71 64 64 64h615.105c82.521 0 149.655-67.135 149.655-149.655V207.847c0-82.52-67.135-149.656-149.655-149.656zM160.64 896.486a0.446 0.446 0 0 1-0.057-0.058v-774.18a0.511 0.511 0 0 1 0.057-0.057h497.392c47.231 0 85.656 38.425 85.656 85.655V810.83c0 47.23-38.425 85.655-85.656 85.655H160.64z m700.703-85.655c0 35.92-22.234 66.73-53.655 79.435V128.412c31.421 12.705 53.655 43.515 53.655 79.435v602.984z" /></svg>