<?xml version="1.0" standalone="no"?><!DOCTYPE svg PUBLIC "-//W3C//DTD SVG 1.1//EN" "http://www.w3.org/Graphics/SVG/1.1/DTD/svg11.dtd"><svg t="1690090399198" class="icon" viewBox="0 0 1024 1024" version="1.1" xmlns="http://www.w3.org/2000/svg" p-id="14691" xmlns:xlink="http://www.w3.org/1999/xlink" width="48" height="48"><path d="M576 938.666667H149.333333c-12.8 0-21.333333-8.533333-21.333333-21.333334V448c0-12.8 8.533333-21.333333 21.333333-21.333333h725.333334c12.8 0 21.333333 8.533333 21.333333 21.333333v128c0 12.8-8.533333 21.333333-21.333333 21.333333s-21.333333-8.533333-21.333334-21.333333v-106.666667H170.666667v426.666667h405.333333c12.8 0 21.333333 8.533333 21.333333 21.333333s-8.533333 21.333333-21.333333 21.333334z" fill="#4286f5" p-id="14692"></path><path d="M490.666667 938.666667c-12.8 0-21.333333-8.533333-21.333334-21.333334V448c0-12.8 8.533333-21.333333 21.333334-21.333333s21.333333 8.533333 21.333333 21.333333v469.333333c0 12.8-8.533333 21.333333-21.333333 21.333334z" fill="#4286f5" p-id="14693"></path><path d="M917.333333 469.333333H106.666667c-12.8 0-21.333333-8.533333-21.333334-21.333333v-170.666667c0-12.8 8.533333-21.333333 21.333334-21.333333h810.666666c12.8 0 21.333333 8.533333 21.333334 21.333333v170.666667c0 12.8-8.533333 21.333333-21.333334 21.333333zM128 426.666667h768v-128H128v128z" fill="#4286f5" p-id="14694"></path><path d="M512 298.666667c-6.4 0-10.666667-2.133333-14.933333-6.4l-170.666667-170.666667c-8.533333-8.533333-8.533333-21.333333 0-29.866667s21.333333-8.533333 29.866667 0l155.733333 155.733334 155.733333-155.733334c8.533333-8.533333 21.333333-8.533333 29.866667 0s8.533333 21.333333 0 29.866667l-170.666667 170.666667c-4.266667 4.266667-8.533333 6.4-14.933333 6.4zM678.4 938.666667h-4.266667c-8.533333-2.133333-14.933333-8.533333-17.066666-17.066667l-59.733334-298.666667c-2.133333-6.4 0-14.933333 6.4-19.2s12.8-6.4 19.2-6.4l298.666667 59.733334c8.533333 2.133333 14.933333 8.533333 17.066667 17.066666 2.133333 8.533333-2.133333 17.066667-8.533334 21.333334l-68.266666 44.8 70.4 70.4c8.533333 8.533333 8.533333 21.333333 0 29.866666l-89.6 89.6c-8.533333 8.533333-21.333333 8.533333-29.866667 0l-70.4-70.4-44.8 68.266667c-6.4 6.4-12.8 10.666667-19.2 10.666667z m59.733333-132.266667c6.4 0 10.666667 2.133333 14.933334 6.4l74.666666 74.666667 59.733334-59.733334-74.666667-74.666666c-4.266667-4.266667-6.4-10.666667-6.4-17.066667s4.266667-12.8 8.533333-14.933333l46.933334-32-217.6-42.666667 42.666666 217.6 32-46.933333c4.266667-6.4 10.666667-10.666667 19.2-10.666667-2.133333 0 0 0 0 0z" fill="#4286f5" p-id="14695"></path></svg>