<?xml version="1.0" standalone="no"?><!DOCTYPE svg PUBLIC "-//W3C//DTD SVG 1.1//EN" "http://www.w3.org/Graphics/SVG/1.1/DTD/svg11.dtd"><svg class="icon" width="64px" height="64.00px" viewBox="0 0 1024 1024" version="1.1" xmlns="http://www.w3.org/2000/svg"><path fill="#fe2c2b" d="M110.4 923.2c-56.8 0-102.4-48-102.4-106.4v-531.2C8 227.2 53.6 179.2 110.4 179.2h800.8c56.8 0 102.4 48 102.4 106.4V816c0 58.4-45.6 106.4-102.4 106.4H110.4z m0-701.6c-34.4 0-61.6 28.8-61.6 64V816c0 35.2 28 64 61.6 64h800.8c34.4 0 61.6-28.8 61.6-64V285.6c0-35.2-28-64-61.6-64H110.4z m431.2 170.4c-12.8 0-23.2-10.4-23.2-24s10.4-24 23.2-24h328c12.8 0 23.2 10.4 23.2 24s-10.4 24-23.2 24h-328z m0 119.2c-12.8 0-23.2-10.4-23.2-24s10.4-24 23.2-24h328c12.8 0 23.2 10.4 23.2 24s-10.4 24-23.2 24h-328z m0 127.2c-12.8 0-23.2-10.4-23.2-24s10.4-24 23.2-24h276.8c12.8 0 23.2 10.4 23.2 24s-10.4 24-23.2 24h-276.8z m-483.2 248c-2.4 0-4.8 0-7.2-0.8-12.8-4-20-18.4-16-32 23.2-78.4 77.6-142.4 148-176l16-8-13.6-12a183.936 183.936 0 0 1-63.2-139.2c0-100 78.4-180.8 173.6-180.8 96 0 173.6 80.8 173.6 180.8a183.936 183.936 0 0 1-63.2 139.2l-13.6 12 16 8c68 32 132.8 112 157.6 194.4 16 52.8-16.8 36-1.6 16-3.2 4.8-16.8-5.6-32-5.6-12.8 0-19.2 24.8-19.2 22.4-31.2-104-120.8-203.2-217.6-203.2-99.2 0-186.4 67.2-216 166.4a21.536 21.536 0 0 1-21.6 18.4zM297.6 388c-69.6 0-126.4 58.4-126.4 130.4s56.8 130.4 126.4 130.4c69.6 0 126.4-58.4 126.4-130.4-0.8-72-56.8-130.4-126.4-130.4z" /></svg>