<?xml version="1.0" standalone="no"?><!DOCTYPE svg PUBLIC "-//W3C//DTD SVG 1.1//EN" "http://www.w3.org/Graphics/SVG/1.1/DTD/svg11.dtd"><svg class="icon" width="48px" height="48.00px" viewBox="0 0 1024 1024" version="1.1" xmlns="http://www.w3.org/2000/svg"><path fill="#F2BE22" d="M488.68 739.86l80.5 74.28c34.12 31.43 36.3 84.57 4.87 118.69a84.116 84.116 0 0 1-21.21 16.64c-31.65 17.55-70.98 12.84-97.61-11.67L334.29 826.58c-24.4-21.81-59.84-26-88.67-10.5-37.56 20.84-84.9 7.28-105.74-30.27l-0.03-0.06-56-101.11c-31.26-56.34-10.93-127.35 45.41-158.62 0.03-0.01 0.06-0.03 0.09-0.05l256.27-141.55a116.73 116.73 0 0 0 45.89-46.66L567.23 93.93c15.69-28.14 51.22-38.22 79.36-22.53a58.287 58.287 0 0 1 22.53 22.53l278.44 503.6c15.56 28.21 5.3 63.69-22.91 79.25a58.363 58.363 0 0 1-36.2 6.7l-284.66-38.89c-25.08-3.47-50.6 1.3-72.72 13.61l-35 19.44c-18.68 10.6-25.24 34.33-14.64 53.01 1.93 3.42 4.38 6.53 7.25 9.21z"  /></svg>