<?xml version="1.0" standalone="no"?><!DOCTYPE svg PUBLIC "-//W3C//DTD SVG 1.1//EN" "http://www.w3.org/Graphics/SVG/1.1/DTD/svg11.dtd"><svg t="1694436648833" class="icon" viewBox="0 0 1024 1024" version="1.1" xmlns="http://www.w3.org/2000/svg" p-id="4212" xmlns:xlink="http://www.w3.org/1999/xlink" width="48" height="48"><path d="M364.032 114.688c0-15.872-13.312-29.184-29.184-29.184s-29.184 13.312-29.184 29.184v40.448h58.368v-40.448zM720.896 114.688c0-15.872-13.312-29.184-29.184-29.184s-29.184 13.312-29.184 29.184v40.448h58.368v-40.448zM832 178.176h-111.616v84.48c0 15.872-13.312 29.184-29.184 29.184s-29.184-13.312-29.184-29.184V178.176H364.032v84.48c0 15.872-13.312 29.184-29.184 29.184s-29.184-13.312-29.184-29.184V178.176H194.048c-45.056 0-81.92 36.352-81.92 81.92v565.76c0 45.056 36.352 81.92 81.92 81.92h637.952c45.056 0 81.92-36.352 81.92-81.92V260.096c0-45.056-36.864-81.92-81.92-81.92z m-128 320.512l-206.336 206.336c-7.168 7.168-16.384 10.752-25.6 10.752s-18.432-3.584-25.6-10.752l-124.416-124.416c-14.336-14.336-14.336-37.376 0-51.2 14.336-14.336 37.376-14.336 51.2 0l98.816 98.816 180.224-180.224c14.336-14.336 37.376-14.336 51.2 0 14.848 13.824 14.848 36.352 0.512 50.688z" fill="#F2BE22" p-id="4213"></path></svg>