<?xml version="1.0" standalone="no"?><!DOCTYPE svg PUBLIC "-//W3C//DTD SVG 1.1//EN" "http://www.w3.org/Graphics/SVG/1.1/DTD/svg11.dtd"><svg t="1725176486608" class="icon" viewBox="0 0 1024 1024" version="1.1" xmlns="http://www.w3.org/2000/svg" p-id="10880" xmlns:xlink="http://www.w3.org/1999/xlink" width="64" height="64"><path d="M238.08 238.08a48 48 0 0 1 67.84 67.84L163.84 448h696.32l-142.08-142.08a48 48 0 0 1 67.84-67.84l224 224a48 48 0 0 1 0 67.84l-224 224a48 48 0 1 1-67.84-67.84l142.08-142.08H163.84l142.08 142.08a48 48 0 1 1-67.84 67.84l-224-224a48 48 0 0 1 0-67.84l224-224z" fill="#FF965B" p-id="10881"></path></svg>